<?xml version="1.0" encoding="utf-8"?>
<!-- Generator: Adobe Illustrator 25.0.0, SVG Export Plug-In . SVG Version: 6.00 Build 0)  -->
<svg version="1.1" id="Layer_1" xmlns="http://www.w3.org/2000/svg" xmlns:xlink="http://www.w3.org/1999/xlink" x="0px" y="0px"
	 viewBox="0 0 213 211" style="enable-background:new 0 0 213 211;" xml:space="preserve">
<style type="text/css">
	.st0{fill:#FFFFFF;}
	.st1{fill:#ED1D24;}
	.st2{fill:none;stroke:#ED1D24;stroke-width:0.989;stroke-miterlimit:22.926;}
</style>
<path class="st0" d="M106.5,205.5c55.23,0,100-44.77,100-100c0-55.23-44.77-100-100-100s-100,44.77-100,100
	C6.5,160.73,51.27,205.5,106.5,205.5"/>
<path class="st0" d="M200.66,105.5c0,52.01-42.16,94.15-94.15,94.15c-52.01,0-94.16-42.14-94.16-94.15
	c0-52.01,42.16-94.16,94.16-94.16C158.5,11.34,200.66,53.49,200.66,105.5"/>
<path class="st1" d="M106.5,10.4c-52.45,0-95.1,42.65-95.1,95.1c0,52.42,42.65,95.1,95.1,95.1c52.43,0,95.09-42.67,95.09-95.1
	C201.59,53.05,158.94,10.4,106.5,10.4 M199.72,105.5c0,51.39-41.82,93.21-93.22,93.21c-51.41,0-93.23-41.82-93.23-93.21
	c0-51.41,41.82-93.22,93.23-93.22C157.9,12.29,199.72,54.1,199.72,105.5"/>
<path class="st2" d="M106.5,10.46c-52.41,0-95.03,42.63-95.03,95.04c0,52.39,42.62,95.04,95.03,95.04
	c52.4,0,95.03-42.65,95.03-95.04C201.53,53.09,158.91,10.46,106.5,10.46z M199.66,105.5c0,51.36-41.8,93.16-93.16,93.16
	c-51.37,0-93.17-41.8-93.17-93.16c0-51.37,41.8-93.16,93.17-93.16C157.87,12.34,199.66,54.13,199.66,105.5z"/>
<path class="st1" d="M31.01,104.81l8.51-7.95c1.4-1.32,2.36-2.44,2.87-3.37c0.54-0.93,0.85-1.88,0.95-2.84l0.61,0.02l-0.38,10.65
	l-0.61-0.03c0.02-0.63-0.07-1.1-0.27-1.39c-0.22-0.28-0.44-0.44-0.71-0.45c-0.27-0.01-0.51,0.03-0.71,0.14
	c-0.22,0.08-0.63,0.43-1.22,0.98l-7.91,7.45l7.21,0.25c1.13,0.04,1.88,0,2.25-0.14c0.28-0.09,0.51-0.32,0.74-0.66
	c0.28-0.46,0.42-0.96,0.44-1.5l0.03-0.74l0.62,0.02l-0.35,9.52l-0.61-0.03l0.03-0.77c0.03-0.94-0.2-1.62-0.73-2.05
	c-0.34-0.29-1.17-0.44-2.53-0.49l-14.44-0.53c-1.14-0.04-1.9,0-2.28,0.14c-0.26,0.11-0.49,0.32-0.71,0.65
	c-0.28,0.48-0.44,0.97-0.45,1.51l-0.02,0.8l-0.62-0.03l0.34-9.54l0.63,0.02l-0.03,0.76c-0.02,0.5,0.08,1.02,0.33,1.5
	c0.15,0.35,0.42,0.61,0.77,0.74c0.34,0.15,1.06,0.25,2.15,0.27l6.86,0.26c-0.21-0.24-0.88-1.01-2.01-2.35
	c-2.87-3.37-4.81-5.41-5.79-6.13c-0.43-0.31-0.81-0.48-1.14-0.5c-0.25-0.01-0.47,0.1-0.68,0.32c-0.19,0.24-0.31,0.62-0.33,1.17
	l-0.02,0.52l-0.61-0.02l0.3-8.23l0.6,0.02c0,0.49,0.05,0.92,0.16,1.32c0.11,0.4,0.32,0.9,0.64,1.48c0.32,0.58,0.87,1.3,1.61,2.18
	c0.21,0.25,1.3,1.41,3.25,3.47L31.01,104.81z"/>
<path class="st1" d="M36.26,80.11c0.09-0.18,0.15-0.36,0.22-0.48c0.07-0.15,0.12-0.27,0.16-0.35c0.83-1.98,1.05-3.63,0.63-4.99
	c-0.43-1.36-1.28-2.32-2.61-2.89c-1.28-0.54-2.49-0.59-3.64-0.13c-1.16,0.45-2.01,1.35-2.58,2.67c-0.25,0.58-0.48,1.42-0.74,2.51
	L36.26,80.11z M53.1,70.05l-2.35,5.49l-12.61,2.83c-0.21,0.53-0.37,0.96-0.52,1.28c-0.06,0.12-0.13,0.27-0.18,0.41
	c-0.07,0.16-0.16,0.32-0.24,0.46l5.98,2.58c1.29,0.55,2.16,0.76,2.6,0.61c0.6-0.18,1.08-0.68,1.41-1.44l0.35-0.81l0.55,0.25
	l-3.78,8.82l-0.56-0.25l0.34-0.76c0.36-0.87,0.36-1.62-0.05-2.23c-0.23-0.35-0.93-0.78-2.09-1.27l-13.29-5.71
	c-1.31-0.57-2.16-0.77-2.6-0.61c-0.61,0.2-1.09,0.69-1.42,1.46l-0.33,0.78l-0.56-0.23l3.2-7.5c0.95-2.19,1.8-3.72,2.56-4.63
	c0.77-0.9,1.73-1.52,2.9-1.88c1.17-0.35,2.33-0.27,3.52,0.22c1.26,0.56,2.19,1.43,2.76,2.66c0.57,1.21,0.68,2.78,0.32,4.67
	l7.73-1.72c1.77-0.39,3.02-0.83,3.77-1.34c0.76-0.51,1.42-1.28,2.02-2.36L53.1,70.05z"/>
<path class="st1" d="M46.18,44.87l5.28-5.77l0.44,0.42l-0.29,0.31c-0.18,0.22-0.38,0.6-0.56,1.19c-0.19,0.57-0.26,1.18-0.22,1.85
	c0.05,0.65,0.25,1.57,0.59,2.79l2.61,9.72l4.14,3.79c1.02,0.92,1.75,1.4,2.21,1.4c0.62,0,1.25-0.33,1.86-0.99l0.48-0.55l0.46,0.42
	l-6.43,7.02l-0.44-0.41l0.53-0.58c0.64-0.7,0.89-1.39,0.73-2.07c-0.1-0.42-0.6-1.05-1.53-1.9l-3.9-3.57l-11.08-1.81
	c-1.29-0.22-2.15-0.31-2.52-0.3c-0.37,0-0.98,0.17-1.81,0.51c-0.24,0.09-0.49,0.28-0.77,0.59l-0.45-0.4l6.48-7.06l0.44,0.42
	l-0.34,0.37c-0.35,0.37-0.57,0.8-0.7,1.3c-0.1,0.47,0.01,0.88,0.36,1.21c0.29,0.28,1.04,0.51,2.28,0.71l8.48,1.43l-2.12-7.89
	c-0.32-1.2-0.66-1.97-1.04-2.31c-0.24-0.2-0.49-0.33-0.78-0.39c-0.28-0.02-0.59-0.01-0.89,0.13c-0.3,0.13-0.65,0.41-1.06,0.85
	L46.18,44.87z"/>
<path class="st1" d="M69.84,29.16c-1.81,0.85-2.95,2.19-3.44,4.01c-0.61,2.29-0.13,5.11,1.48,8.43c1.55,3.28,3.47,5.46,5.72,6.54
	c1.74,0.84,3.51,0.83,5.31-0.02c1.87-0.9,3.06-2.3,3.54-4.2c0.57-2.26,0.11-4.95-1.39-8.08c-1.16-2.42-2.5-4.27-4.01-5.58
	c-1.18-1-2.39-1.57-3.6-1.73C72.21,28.39,71.03,28.58,69.84,29.16 M81.79,47.69c1.85,1.26,3.56,2.02,5.12,2.28
	c1.58,0.27,3.14,0.1,4.7-0.5l0.22,0.47c-1.39,0.62-2.98,1.03-4.78,1.29c-1.8,0.24-3.61,0.25-5.43,0.04
	c-1.81-0.23-3.48-0.61-4.96-1.11c-1.7,0.09-3.13,0.04-4.28-0.22c-1.67-0.38-3.18-1.1-4.52-2.19c-1.34-1.09-2.47-2.59-3.4-4.51
	c-1.43-3.02-1.66-5.98-0.66-8.92c1-2.94,2.9-5.07,5.68-6.4c2.65-1.26,5.42-1.36,8.3-0.27c2.88,1.08,5.06,3.14,6.53,6.18
	c1.18,2.48,1.53,4.97,1.05,7.5C84.86,43.85,83.68,45.98,81.79,47.69"/>
<path class="st1" d="M100.52,41.93l0.09,0.61l-9.45,1.65l-0.09-0.61l0.77-0.14c0.92-0.17,1.53-0.55,1.85-1.15
	c0.2-0.39,0.19-1.24-0.05-2.57l-2.48-14.26c-0.18-1.12-0.4-1.84-0.59-2.18c-0.16-0.24-0.42-0.43-0.79-0.58
	c-0.51-0.17-1.04-0.21-1.56-0.13l-0.78,0.14l-0.11-0.59l9.45-1.66l0.11,0.61l-0.8,0.13c-0.89,0.16-1.5,0.55-1.83,1.14
	c-0.21,0.4-0.19,1.26,0.03,2.59l2.48,14.25c0.21,1.12,0.4,1.85,0.61,2.18c0.14,0.25,0.4,0.45,0.79,0.57
	c0.52,0.19,1.03,0.23,1.56,0.14L100.52,41.93z"/>
<path class="st1" d="M127.6,45.24l-0.15,0.59l-9.27-2.49l0.17-0.58l0.77,0.19c0.88,0.25,1.59,0.16,2.13-0.25
	c0.35-0.26,0.69-1.05,1.04-2.35l3.76-13.95c0.29-1.1,0.42-1.84,0.37-2.24c-0.03-0.29-0.2-0.57-0.47-0.87
	c-0.4-0.38-0.86-0.64-1.36-0.76l-0.76-0.22l0.17-0.58l9.25,2.49l-0.15,0.58l-0.79-0.2c-0.89-0.25-1.61-0.15-2.15,0.26
	c-0.35,0.27-0.71,1.05-1.05,2.34l-3.74,13.96c-0.29,1.09-0.42,1.84-0.37,2.23c0.03,0.29,0.19,0.58,0.47,0.87
	c0.39,0.37,0.85,0.63,1.37,0.76L127.6,45.24z"/>
<path class="st1" d="M158.97,51.22l-0.09,11.64c-0.03,1.91,0.14,3.39,0.46,4.42c0.32,1.03,0.8,1.9,1.42,2.63l-0.45,0.43l-7.45-7.6
	l0.44-0.44c0.45,0.46,0.85,0.71,1.2,0.76c0.35,0.05,0.62-0.02,0.8-0.2c0.2-0.19,0.31-0.38,0.4-0.62c0.08-0.21,0.12-0.74,0.12-1.55
	l0.06-10.88l-5.17,5.04c-0.8,0.8-1.29,1.36-1.43,1.72c-0.13,0.29-0.14,0.62-0.03,1.01c0.13,0.51,0.39,0.97,0.75,1.35l0.54,0.53
	l-0.44,0.44l-6.68-6.83l0.43-0.42l0.55,0.56c0.66,0.66,1.32,0.95,2,0.87c0.42-0.04,1.13-0.55,2.1-1.48l10.32-10.13
	c0.81-0.8,1.31-1.37,1.47-1.74c0.12-0.28,0.12-0.6,0.02-0.99c-0.16-0.52-0.41-0.98-0.78-1.36l-0.55-0.56l0.44-0.43l6.67,6.83
	l-0.43,0.41l-0.54-0.54c-0.36-0.37-0.79-0.63-1.32-0.81c-0.37-0.11-0.72-0.09-1.07,0.05c-0.34,0.16-0.9,0.61-1.69,1.38l-4.9,4.81
	c0.3,0,1.32,0.05,3.08,0.14c4.42,0.23,7.23,0.25,8.43,0.04c0.53-0.1,0.89-0.25,1.14-0.5c0.18-0.17,0.26-0.4,0.24-0.71
	c-0.03-0.3-0.23-0.65-0.62-1.04l-0.36-0.36l0.44-0.41l5.75,5.87L173.82,53c-0.35-0.34-0.7-0.62-1.05-0.81
	c-0.36-0.2-0.87-0.38-1.52-0.54c-0.64-0.17-1.55-0.29-2.69-0.35c-0.33,0-1.91-0.01-4.76-0.01L158.97,51.22z"/>
<path class="st1" d="M186.39,76.71l0.56-0.23l3.01,7.33l-0.56,0.22l-0.32-0.78c-0.33-0.8-0.93-1.29-1.8-1.46
	c-0.41-0.07-1.19,0.12-2.32,0.6l-8.39,3.46c-2.08,0.84-3.78,1.31-5.09,1.37c-1.31,0.06-2.62-0.35-3.95-1.22
	c-1.31-0.86-2.4-2.33-3.24-4.41c-0.95-2.27-1.27-4.13-0.96-5.63c0.32-1.5,1.02-2.75,2.13-3.78c0.77-0.7,2.4-1.57,4.9-2.6l8.08-3.34
	c1.28-0.53,2.04-1.04,2.3-1.57c0.25-0.5,0.21-1.15-0.11-1.94l-0.32-0.78l0.56-0.23l3.69,8.93l-0.57,0.24l-0.33-0.8
	c-0.35-0.86-0.87-1.35-1.55-1.51c-0.48-0.11-1.28,0.09-2.44,0.56l-9.02,3.73c-0.81,0.33-1.71,0.79-2.68,1.36
	c-0.97,0.57-1.67,1.18-2.09,1.8c-0.43,0.62-0.67,1.38-0.75,2.25c-0.08,0.89,0.11,1.86,0.55,2.92c0.55,1.35,1.35,2.44,2.38,3.27
	c1.03,0.82,2.08,1.24,3.17,1.24c1.08,0.02,2.72-0.44,4.92-1.34l8.37-3.45c1.28-0.54,2.04-1.01,2.25-1.43
	c0.28-0.58,0.26-1.26-0.06-2.04L186.39,76.71z"/>
<path class="st1" d="M191.18,104.5c-0.03-2.01-0.76-3.61-2.21-4.83c-1.82-1.51-4.57-2.25-8.26-2.21c-3.62,0.04-6.41,0.85-8.34,2.45
	c-1.5,1.21-2.23,2.84-2.2,4.83c0.02,2.06,0.8,3.72,2.31,4.98c1.81,1.47,4.46,2.18,7.94,2.14c2.66-0.03,4.92-0.47,6.73-1.31
	c1.4-0.64,2.44-1.48,3.09-2.52C190.87,106.97,191.19,105.79,191.18,104.5 M169.32,107.52c-1.91,1.15-3.32,2.37-4.24,3.7
	c-0.89,1.31-1.4,2.81-1.5,4.47l-0.54,0c0.04-1.53,0.32-3.15,0.86-4.88c0.53-1.73,1.28-3.39,2.24-4.94c0.99-1.57,2.02-2.91,3.1-4.05
	c0.63-1.58,1.29-2.85,1.99-3.78c1.05-1.36,2.35-2.42,3.9-3.18c1.54-0.77,3.38-1.15,5.51-1.17c3.34-0.04,6.13,1.01,8.37,3.16
	c2.24,2.13,3.37,4.75,3.41,7.82c0.03,2.94-1.05,5.49-3.22,7.64c-2.2,2.17-4.99,3.27-8.37,3.32c-2.74,0.03-5.15-0.71-7.24-2.21
	C171.53,111.93,170.09,109.95,169.32,107.52"/>
<path class="st1" d="M52.06,139.05l-6.95,3.41l-0.28-0.54c1.26-0.84,2.16-1.67,2.74-2.52c0.56-0.84,0.86-1.81,0.91-2.9
	c0.05-1.08-0.15-2.07-0.59-2.97c-0.51-1.03-1.24-1.72-2.2-2.09c-0.95-0.37-1.84-0.35-2.63,0.04c-0.63,0.3-1.07,0.79-1.38,1.46
	c-0.43,0.97-0.71,2.91-0.81,5.83c-0.09,2.37-0.24,4.02-0.44,4.99c-0.2,0.95-0.57,1.79-1.13,2.53c-0.54,0.71-1.22,1.28-2.02,1.68
	c-1.53,0.75-3.13,0.78-4.8,0.14c-1.68-0.64-2.99-1.88-3.89-3.75c-0.28-0.57-0.52-1.15-0.67-1.7c-0.11-0.34-0.25-1.05-0.4-2.18
	c-0.17-1.12-0.3-1.8-0.44-2.05c-0.12-0.24-0.29-0.41-0.5-0.49c-0.23-0.06-0.59-0.02-1.08,0.14l-0.28-0.56l6.91-3.38l0.27,0.56
	c-1.32,0.96-2.24,1.83-2.73,2.62c-0.51,0.79-0.78,1.74-0.81,2.88c-0.04,1.13,0.2,2.22,0.73,3.29c0.6,1.24,1.41,2.06,2.41,2.44
	c1,0.39,1.96,0.38,2.84-0.04c0.5-0.26,0.92-0.64,1.29-1.15c0.37-0.53,0.63-1.18,0.79-1.95c0.11-0.54,0.21-1.9,0.34-4.1
	c0.12-2.2,0.28-3.79,0.51-4.8c0.21-1,0.58-1.88,1.08-2.59c0.51-0.72,1.17-1.27,2.01-1.67c1.45-0.71,2.95-0.77,4.55-0.16
	c1.57,0.59,2.79,1.74,3.62,3.46c0.53,1.06,0.82,2.32,0.89,3.78c0.02,0.67,0.09,1.13,0.19,1.35c0.13,0.25,0.31,0.43,0.55,0.53
	c0.23,0.07,0.6,0.05,1.12-0.06L52.06,139.05z"/>
<path class="st1" d="M50.08,154.58l7.37,7.34l4.54-4.54c0.79-0.82,1.28-1.4,1.43-1.75c0.12-0.27,0.13-0.6,0.01-0.99
	c-0.14-0.53-0.4-0.98-0.77-1.34l-0.57-0.57l0.43-0.44l6.79,6.77l-0.43,0.44l-0.57-0.57c-0.36-0.37-0.81-0.63-1.33-0.78
	c-0.38-0.13-0.73-0.11-1.08,0.06c-0.34,0.16-0.89,0.64-1.67,1.41l-10.21,10.23c-0.79,0.81-1.27,1.38-1.43,1.74
	c-0.1,0.28-0.1,0.61-0.02,0.99c0.17,0.53,0.43,0.98,0.8,1.36l0.56,0.55l-0.42,0.44l-6.79-6.76l0.43-0.44l0.55,0.57
	c0.65,0.64,1.32,0.92,2,0.82c0.43-0.05,1.12-0.55,2.08-1.5l4.81-4.84l-7.37-7.35l-4.81,4.85c-0.81,0.79-1.29,1.38-1.44,1.74
	c-0.12,0.27-0.12,0.6-0.01,0.99c0.14,0.52,0.41,0.96,0.78,1.34l0.57,0.57l-0.43,0.44l-6.79-6.78l0.43-0.42l0.57,0.56
	c0.65,0.65,1.31,0.93,1.99,0.85c0.44-0.07,1.13-0.58,2.07-1.53l10.2-10.23c0.81-0.8,1.29-1.39,1.44-1.75
	c0.11-0.27,0.12-0.59,0.03-0.98c-0.16-0.54-0.42-0.98-0.8-1.35l-0.55-0.57l0.42-0.42l6.8,6.76l-0.44,0.44l-0.57-0.56
	c-0.38-0.38-0.82-0.64-1.33-0.8c-0.36-0.13-0.72-0.1-1.06,0.07c-0.34,0.15-0.92,0.63-1.68,1.4L50.08,154.58z"/>
<path class="st1" d="M80.54,165.02c-1.84-0.81-3.61-0.79-5.3,0.04c-2.13,1.03-3.93,3.25-5.41,6.63c-1.44,3.33-1.84,6.19-1.18,8.6
	c0.51,1.87,1.68,3.2,3.51,4c1.9,0.83,3.73,0.8,5.49-0.09c2.07-1.04,3.8-3.16,5.19-6.35c1.07-2.46,1.59-4.67,1.58-6.68
	c-0.02-1.53-0.37-2.81-1.06-3.84C82.67,166.3,81.72,165.55,80.54,165.02 M74.35,186.19c0.26,2.21,0.8,4.01,1.65,5.36
	c0.82,1.36,1.98,2.43,3.45,3.22l-0.22,0.49c-1.37-0.65-2.74-1.6-4.1-2.78c-1.37-1.21-2.57-2.56-3.59-4.09
	c-1.03-1.51-1.83-3.01-2.42-4.48c-1.19-1.21-2.08-2.33-2.63-3.36c-0.81-1.52-1.25-3.13-1.31-4.86c-0.05-1.73,0.33-3.57,1.19-5.52
	c1.32-3.06,3.43-5.17,6.3-6.35c2.88-1.15,5.72-1.12,8.55,0.1c2.68,1.17,4.57,3.19,5.65,6.09c1.06,2.89,0.94,5.88-0.4,8.97
	c-1.1,2.52-2.75,4.43-4.98,5.71C79.27,185.99,76.89,186.49,74.35,186.19"/>
<path class="st1" d="M99.29,191.3l-0.09,0.6l-9.51-1.34l0.1-0.6l0.79,0.11c0.91,0.12,1.61-0.04,2.11-0.53
	c0.31-0.31,0.56-1.14,0.75-2.47l2.02-14.32c0.17-1.13,0.19-1.88,0.11-2.26c-0.08-0.29-0.26-0.55-0.58-0.78
	c-0.43-0.33-0.92-0.54-1.44-0.62l-0.78-0.1l0.09-0.62l9.49,1.36l-0.07,0.6l-0.81-0.12c-0.9-0.11-1.6,0.05-2.09,0.53
	c-0.33,0.31-0.57,1.13-0.77,2.46l-2.02,14.32c-0.17,1.13-0.2,1.87-0.11,2.24c0.07,0.3,0.26,0.57,0.59,0.81
	c0.43,0.33,0.92,0.54,1.43,0.6L99.29,191.3z"/>
<path class="st1" d="M110.54,180.59c0.58,0.06,1.12,0.09,1.58,0.1c0.45,0.02,0.83,0.01,1.15-0.02c1.15-0.08,2.08-0.62,2.84-1.57
	c0.75-0.95,1.07-2.14,0.94-3.54c-0.07-0.96-0.36-1.85-0.81-2.64c-0.47-0.79-1.08-1.38-1.85-1.73c-0.76-0.35-1.59-0.47-2.53-0.39
	c-0.55,0.03-1.26,0.21-2.13,0.49L110.54,180.59z M110.62,181.52l0.56,6.5c0.13,1.4,0.35,2.27,0.69,2.58
	c0.46,0.45,1.11,0.63,1.97,0.57l0.85-0.07l0.05,0.6l-9.57,0.84l-0.05-0.62l0.84-0.06c0.94-0.08,1.6-0.45,1.95-1.1
	c0.19-0.36,0.23-1.18,0.11-2.45l-1.25-14.42c-0.13-1.41-0.34-2.28-0.67-2.59c-0.47-0.45-1.13-0.63-1.98-0.55l-0.83,0.08l-0.05-0.62
	l8.18-0.71c1.99-0.16,3.58-0.09,4.77,0.22c1.18,0.31,2.23,0.91,3.09,1.82c0.89,0.91,1.37,2.03,1.49,3.37
	c0.15,1.82-0.3,3.35-1.41,4.6c-1.11,1.24-2.75,1.95-4.95,2.16c-0.54,0.03-1.12,0.04-1.76,0.03
	C112.03,181.68,111.35,181.62,110.62,181.52"/>
<path class="st1" d="M139.22,161.36l2.28,4.74l-0.59,0.24c-0.45-0.79-0.87-1.35-1.21-1.63c-0.57-0.46-1.17-0.71-1.81-0.77
	c-0.64-0.07-1.38,0.09-2.24,0.45l-2.89,1.21l6.63,15.77c0.52,1.28,1,2.02,1.41,2.21c0.56,0.26,1.24,0.23,2.05-0.11l0.72-0.3
	l0.23,0.57l-8.75,3.68l-0.22-0.56l0.73-0.3c0.86-0.37,1.38-0.9,1.51-1.59c0.09-0.42-0.1-1.19-0.6-2.36l-6.63-15.77l-2.48,1.04
	c-0.96,0.41-1.61,0.77-1.96,1.08c-0.45,0.42-0.74,0.98-0.9,1.68c-0.13,0.71-0.06,1.55,0.27,2.51l-0.57,0.24l-1.8-4.95L139.22,161.36
	z"/>
<path class="st1" d="M158.13,163.83l-8.67-4.58l2.73,9.48L158.13,163.83z M159.28,164.5l-6.7,5.51l1.07,3.69
	c0.26,0.92,0.53,1.54,0.81,1.87c0.21,0.26,0.53,0.4,0.94,0.38c0.42-0.01,1.07-0.32,1.94-0.94l0.39,0.46l-5.43,4.49l-0.39-0.47
	c0.62-0.72,0.94-1.29,0.99-1.65c0.11-0.77-0.1-2-0.59-3.68l-5.63-19.24l0.44-0.37l17.86,9.44c1.43,0.76,2.5,1.15,3.17,1.17
	c0.68,0.02,1.39-0.25,2.13-0.78l0.38,0.48l-6.82,5.62l-0.39-0.48c0.66-0.59,1.03-1.1,1.12-1.5c0.08-0.4,0-0.73-0.22-1.01
	c-0.33-0.38-0.98-0.83-1.98-1.35L159.28,164.5z"/>
<path class="st1" d="M169.38,146.72c0.11-0.17,0.21-0.33,0.27-0.46c0.09-0.14,0.16-0.25,0.21-0.33c1.07-1.84,1.47-3.48,1.2-4.88
	c-0.26-1.4-1.01-2.46-2.24-3.16c-1.22-0.7-2.41-0.89-3.62-0.57c-1.2,0.32-2.15,1.11-2.87,2.36c-0.32,0.56-0.66,1.35-1.02,2.41
	L169.38,146.72z M187.28,138.69l-2.98,5.18l-12.85,1.36c-0.26,0.49-0.47,0.89-0.66,1.2c-0.08,0.13-0.14,0.25-0.23,0.4
	c-0.09,0.15-0.19,0.28-0.27,0.43l5.63,3.25c1.22,0.7,2.06,1,2.5,0.9c0.64-0.13,1.16-0.55,1.57-1.26l0.45-0.76l0.52,0.31l-4.77,8.31
	l-0.54-0.3l0.42-0.73c0.48-0.83,0.55-1.56,0.2-2.23c-0.18-0.37-0.81-0.87-1.92-1.5L161.82,146c-1.23-0.7-2.05-1-2.51-0.9
	c-0.63,0.13-1.17,0.56-1.59,1.29l-0.4,0.73l-0.55-0.3l4.08-7.07c1.18-2.06,2.2-3.49,3.08-4.3c0.85-0.79,1.88-1.31,3.09-1.52
	c1.2-0.23,2.35-0.01,3.47,0.63c1.2,0.69,2,1.66,2.43,2.96c0.43,1.28,0.35,2.83-0.22,4.67l7.86-0.8c1.81-0.18,3.11-0.47,3.91-0.9
	c0.8-0.42,1.57-1.12,2.29-2.11L187.28,138.69z"/>
<polygon class="st1" points="151.59,90.05 121.94,90.05 121.94,60.41 91.06,60.41 91.06,90.05 61.41,90.05 61.41,120.95 
	91.06,120.95 91.06,150.58 121.94,150.58 121.94,120.95 151.59,120.95 "/>
<path class="st1" d="M106.5,47.26c-32.12,0-58.24,26.12-58.24,58.24c0,32.11,26.12,58.24,58.24,58.24
	c32.11,0,58.23-26.13,58.23-58.24C164.73,73.38,138.62,47.26,106.5,47.26 M162.87,105.5c0,31.07-25.29,56.36-56.36,56.36
	c-31.09,0-56.38-25.29-56.38-56.36c0-31.07,25.29-56.36,56.38-56.36C137.58,49.14,162.87,74.43,162.87,105.5"/>
<path class="st2" d="M106.5,47.32c-32.09,0-58.18,26.09-58.18,58.18c0,32.08,26.09,58.18,58.18,58.18
	c32.08,0,58.17-26.11,58.17-58.18C164.67,73.41,138.58,47.32,106.5,47.32z M162.81,105.5c0,31.04-25.26,56.3-56.3,56.3
	c-31.05,0-56.32-25.26-56.32-56.3c0-31.04,25.26-56.3,56.32-56.3C137.55,49.2,162.81,74.46,162.81,105.5z"/>
<path class="st0" d="M106.5,205.5c55.23,0,100-44.77,100-100c0-55.23-44.77-100-100-100s-100,44.77-100,100
	C6.5,160.73,51.27,205.5,106.5,205.5"/>
<path class="st0" d="M200.66,105.5c0,52.01-42.16,94.15-94.15,94.15c-52.01,0-94.16-42.14-94.16-94.15
	c0-52.01,42.16-94.16,94.16-94.16C158.5,11.34,200.66,53.49,200.66,105.5"/>
<path class="st1" d="M106.5,10.4c-52.45,0-95.1,42.65-95.1,95.1c0,52.42,42.65,95.1,95.1,95.1c52.43,0,95.09-42.67,95.09-95.1
	C201.59,53.05,158.94,10.4,106.5,10.4 M199.72,105.5c0,51.39-41.82,93.21-93.22,93.21c-51.41,0-93.23-41.82-93.23-93.21
	c0-51.41,41.82-93.22,93.23-93.22C157.9,12.29,199.72,54.1,199.72,105.5"/>
<path class="st2" d="M106.5,10.46c-52.41,0-95.03,42.63-95.03,95.04c0,52.39,42.62,95.04,95.03,95.04
	c52.4,0,95.03-42.65,95.03-95.04C201.53,53.09,158.91,10.46,106.5,10.46z M199.66,105.5c0,51.36-41.8,93.16-93.16,93.16
	c-51.37,0-93.17-41.8-93.17-93.16c0-51.37,41.8-93.16,93.17-93.16C157.87,12.34,199.66,54.13,199.66,105.5z"/>
<path class="st1" d="M31.01,104.81l8.51-7.95c1.4-1.32,2.36-2.44,2.87-3.37c0.54-0.93,0.85-1.88,0.95-2.84l0.61,0.02l-0.38,10.65
	l-0.61-0.03c0.02-0.63-0.07-1.1-0.27-1.39c-0.22-0.28-0.44-0.44-0.71-0.45c-0.27-0.01-0.51,0.03-0.71,0.14
	c-0.22,0.08-0.63,0.43-1.22,0.98l-7.91,7.45l7.21,0.25c1.13,0.04,1.88,0,2.25-0.14c0.28-0.09,0.51-0.32,0.74-0.66
	c0.28-0.46,0.42-0.96,0.44-1.5l0.03-0.74l0.62,0.02l-0.35,9.52l-0.61-0.03l0.03-0.77c0.03-0.94-0.2-1.62-0.73-2.05
	c-0.34-0.29-1.17-0.44-2.53-0.49l-14.44-0.53c-1.14-0.04-1.9,0-2.28,0.14c-0.26,0.11-0.49,0.32-0.71,0.65
	c-0.28,0.48-0.44,0.97-0.45,1.51l-0.02,0.8l-0.62-0.03l0.34-9.54l0.63,0.02l-0.03,0.76c-0.02,0.5,0.08,1.02,0.33,1.5
	c0.15,0.35,0.42,0.61,0.77,0.74c0.34,0.15,1.06,0.25,2.15,0.27l6.86,0.26c-0.21-0.24-0.88-1.01-2.01-2.35
	c-2.87-3.37-4.81-5.41-5.79-6.13c-0.43-0.31-0.81-0.48-1.14-0.5c-0.25-0.01-0.47,0.1-0.68,0.32c-0.19,0.24-0.31,0.62-0.33,1.17
	l-0.02,0.52l-0.61-0.02l0.3-8.23l0.6,0.02c0,0.49,0.05,0.92,0.16,1.32c0.11,0.4,0.32,0.9,0.64,1.48c0.32,0.58,0.87,1.3,1.61,2.18
	c0.21,0.25,1.3,1.41,3.25,3.47L31.01,104.81z"/>
<path class="st1" d="M36.26,80.11c0.09-0.18,0.15-0.36,0.22-0.48c0.07-0.15,0.12-0.27,0.16-0.35c0.83-1.98,1.05-3.63,0.63-4.99
	c-0.43-1.36-1.28-2.32-2.61-2.89c-1.28-0.54-2.49-0.59-3.64-0.13c-1.16,0.45-2.01,1.35-2.58,2.67c-0.25,0.58-0.48,1.42-0.74,2.51
	L36.26,80.11z M53.1,70.05l-2.35,5.49l-12.61,2.83c-0.21,0.53-0.37,0.96-0.52,1.28c-0.06,0.12-0.13,0.27-0.18,0.41
	c-0.07,0.16-0.16,0.32-0.24,0.46l5.98,2.58c1.29,0.55,2.16,0.76,2.6,0.61c0.6-0.18,1.08-0.68,1.41-1.44l0.35-0.81l0.55,0.25
	l-3.78,8.82l-0.56-0.25l0.34-0.76c0.36-0.87,0.36-1.62-0.05-2.23c-0.23-0.35-0.93-0.78-2.09-1.27l-13.29-5.71
	c-1.31-0.57-2.16-0.77-2.6-0.61c-0.61,0.2-1.09,0.69-1.42,1.46l-0.33,0.78l-0.56-0.23l3.2-7.5c0.95-2.19,1.8-3.72,2.56-4.63
	c0.77-0.9,1.73-1.52,2.9-1.88c1.17-0.35,2.33-0.27,3.52,0.22c1.26,0.56,2.19,1.43,2.76,2.66c0.57,1.21,0.68,2.78,0.32,4.67
	l7.73-1.72c1.77-0.39,3.02-0.83,3.77-1.34c0.76-0.51,1.42-1.28,2.02-2.36L53.1,70.05z"/>
<path class="st1" d="M46.18,44.87l5.28-5.77l0.44,0.42l-0.29,0.31c-0.18,0.22-0.38,0.6-0.56,1.19c-0.19,0.57-0.26,1.18-0.22,1.85
	c0.05,0.65,0.25,1.57,0.59,2.79l2.61,9.72l4.14,3.79c1.02,0.92,1.75,1.4,2.21,1.4c0.62,0,1.25-0.33,1.86-0.99l0.48-0.55l0.46,0.42
	l-6.43,7.02l-0.44-0.41l0.53-0.58c0.64-0.7,0.89-1.39,0.73-2.07c-0.1-0.42-0.6-1.05-1.53-1.9l-3.9-3.57l-11.08-1.81
	c-1.29-0.22-2.15-0.31-2.52-0.3c-0.37,0-0.98,0.17-1.81,0.51c-0.24,0.09-0.49,0.28-0.77,0.59l-0.45-0.4l6.48-7.06l0.44,0.42
	l-0.34,0.37c-0.35,0.37-0.57,0.8-0.7,1.3c-0.1,0.47,0.01,0.88,0.36,1.21c0.29,0.28,1.04,0.51,2.28,0.71l8.48,1.43l-2.12-7.89
	c-0.32-1.2-0.66-1.97-1.04-2.31c-0.24-0.2-0.49-0.33-0.78-0.39c-0.28-0.02-0.59-0.01-0.89,0.13c-0.3,0.13-0.65,0.41-1.06,0.85
	L46.18,44.87z"/>
<path class="st1" d="M69.84,29.16c-1.81,0.85-2.95,2.19-3.44,4.01c-0.61,2.29-0.13,5.11,1.48,8.43c1.55,3.28,3.47,5.46,5.72,6.54
	c1.74,0.84,3.51,0.83,5.31-0.02c1.87-0.9,3.06-2.3,3.54-4.2c0.57-2.26,0.11-4.95-1.39-8.08c-1.16-2.42-2.5-4.27-4.01-5.58
	c-1.18-1-2.39-1.57-3.6-1.73C72.21,28.39,71.03,28.58,69.84,29.16 M81.79,47.69c1.85,1.26,3.56,2.02,5.12,2.28
	c1.58,0.27,3.14,0.1,4.7-0.5l0.22,0.47c-1.39,0.62-2.98,1.03-4.78,1.29c-1.8,0.24-3.61,0.25-5.43,0.04
	c-1.81-0.23-3.48-0.61-4.96-1.11c-1.7,0.09-3.13,0.04-4.28-0.22c-1.67-0.38-3.18-1.1-4.52-2.19c-1.34-1.09-2.47-2.59-3.4-4.51
	c-1.43-3.02-1.66-5.98-0.66-8.92c1-2.94,2.9-5.07,5.68-6.4c2.65-1.26,5.42-1.36,8.3-0.27c2.88,1.08,5.06,3.14,6.53,6.18
	c1.18,2.48,1.53,4.97,1.05,7.5C84.86,43.85,83.68,45.98,81.79,47.69"/>
<path class="st1" d="M100.52,41.93l0.09,0.61l-9.45,1.65l-0.09-0.61l0.77-0.14c0.92-0.17,1.53-0.55,1.85-1.15
	c0.2-0.39,0.19-1.24-0.05-2.57l-2.48-14.26c-0.18-1.12-0.4-1.84-0.59-2.18c-0.16-0.24-0.42-0.43-0.79-0.58
	c-0.51-0.17-1.04-0.21-1.56-0.13l-0.78,0.14l-0.11-0.59l9.45-1.66l0.11,0.61l-0.8,0.13c-0.89,0.16-1.5,0.55-1.83,1.14
	c-0.21,0.4-0.19,1.26,0.03,2.59l2.48,14.25c0.21,1.12,0.4,1.85,0.61,2.18c0.14,0.25,0.4,0.45,0.79,0.57
	c0.52,0.19,1.03,0.23,1.56,0.14L100.52,41.93z"/>
<path class="st1" d="M127.6,45.24l-0.15,0.59l-9.27-2.49l0.17-0.58l0.77,0.19c0.88,0.25,1.59,0.16,2.13-0.25
	c0.35-0.26,0.69-1.05,1.04-2.35l3.76-13.95c0.29-1.1,0.42-1.84,0.37-2.24c-0.03-0.29-0.2-0.57-0.47-0.87
	c-0.4-0.38-0.86-0.64-1.36-0.76l-0.76-0.22l0.17-0.58l9.25,2.49l-0.15,0.58l-0.79-0.2c-0.89-0.25-1.61-0.15-2.15,0.26
	c-0.35,0.27-0.71,1.05-1.05,2.34l-3.74,13.96c-0.29,1.09-0.42,1.84-0.37,2.23c0.03,0.29,0.19,0.58,0.47,0.87
	c0.39,0.37,0.85,0.63,1.37,0.76L127.6,45.24z"/>
<path class="st1" d="M158.97,51.22l-0.09,11.64c-0.03,1.91,0.14,3.39,0.46,4.42c0.32,1.03,0.8,1.9,1.42,2.63l-0.45,0.43l-7.45-7.6
	l0.44-0.44c0.45,0.46,0.85,0.71,1.2,0.76c0.35,0.05,0.62-0.02,0.8-0.2c0.2-0.19,0.31-0.38,0.4-0.62c0.08-0.21,0.12-0.74,0.12-1.55
	l0.06-10.88l-5.17,5.04c-0.8,0.8-1.29,1.36-1.43,1.72c-0.13,0.29-0.14,0.62-0.03,1.01c0.13,0.51,0.39,0.97,0.75,1.35l0.54,0.53
	l-0.44,0.44l-6.68-6.83l0.43-0.42l0.55,0.56c0.66,0.66,1.32,0.95,2,0.87c0.42-0.04,1.13-0.55,2.1-1.48l10.32-10.13
	c0.81-0.8,1.31-1.37,1.47-1.74c0.12-0.28,0.12-0.6,0.02-0.99c-0.16-0.52-0.41-0.98-0.78-1.36l-0.55-0.56l0.44-0.43l6.67,6.83
	l-0.43,0.41l-0.54-0.54c-0.36-0.37-0.79-0.63-1.32-0.81c-0.37-0.11-0.72-0.09-1.07,0.05c-0.34,0.16-0.9,0.61-1.69,1.38l-4.9,4.81
	c0.3,0,1.32,0.05,3.08,0.14c4.42,0.23,7.23,0.25,8.43,0.04c0.53-0.1,0.89-0.25,1.14-0.5c0.18-0.17,0.26-0.4,0.24-0.71
	c-0.03-0.3-0.23-0.65-0.62-1.04l-0.36-0.36l0.44-0.41l5.75,5.87L173.82,53c-0.35-0.34-0.7-0.62-1.05-0.81
	c-0.36-0.2-0.87-0.38-1.52-0.54c-0.64-0.17-1.55-0.29-2.69-0.35c-0.33,0-1.91-0.01-4.76-0.01L158.97,51.22z"/>
<path class="st1" d="M186.39,76.71l0.56-0.23l3.01,7.33l-0.56,0.22l-0.32-0.78c-0.33-0.8-0.93-1.29-1.8-1.46
	c-0.41-0.07-1.19,0.12-2.32,0.6l-8.39,3.46c-2.08,0.84-3.78,1.31-5.09,1.37c-1.31,0.06-2.62-0.35-3.95-1.22
	c-1.31-0.86-2.4-2.33-3.24-4.41c-0.95-2.27-1.27-4.13-0.96-5.63c0.32-1.5,1.02-2.75,2.13-3.78c0.77-0.7,2.4-1.57,4.9-2.6l8.08-3.34
	c1.28-0.53,2.04-1.04,2.3-1.57c0.25-0.5,0.21-1.15-0.11-1.94l-0.32-0.78l0.56-0.23l3.69,8.93l-0.57,0.24l-0.33-0.8
	c-0.35-0.86-0.87-1.35-1.55-1.51c-0.48-0.11-1.28,0.09-2.44,0.56l-9.02,3.73c-0.81,0.33-1.71,0.79-2.68,1.36
	c-0.97,0.57-1.67,1.18-2.09,1.8c-0.43,0.62-0.67,1.38-0.75,2.25c-0.08,0.89,0.11,1.86,0.55,2.92c0.55,1.35,1.35,2.44,2.38,3.27
	c1.03,0.82,2.08,1.24,3.17,1.24c1.08,0.02,2.72-0.44,4.92-1.34l8.37-3.45c1.28-0.54,2.04-1.01,2.25-1.43
	c0.28-0.58,0.26-1.26-0.06-2.04L186.39,76.71z"/>
<path class="st1" d="M191.18,104.5c-0.03-2.01-0.76-3.61-2.21-4.83c-1.82-1.51-4.57-2.25-8.26-2.21c-3.62,0.04-6.41,0.85-8.34,2.45
	c-1.5,1.21-2.23,2.84-2.2,4.83c0.02,2.06,0.8,3.72,2.31,4.98c1.81,1.47,4.46,2.18,7.94,2.14c2.66-0.03,4.92-0.47,6.73-1.31
	c1.4-0.64,2.44-1.48,3.09-2.52C190.87,106.97,191.19,105.79,191.18,104.5 M169.32,107.52c-1.91,1.15-3.32,2.37-4.24,3.7
	c-0.89,1.31-1.4,2.81-1.5,4.47l-0.54,0c0.04-1.53,0.32-3.15,0.86-4.88c0.53-1.73,1.28-3.39,2.24-4.94c0.99-1.57,2.02-2.91,3.1-4.05
	c0.63-1.58,1.29-2.85,1.99-3.78c1.05-1.36,2.35-2.42,3.9-3.18c1.54-0.77,3.38-1.15,5.51-1.17c3.34-0.04,6.13,1.01,8.37,3.16
	c2.24,2.13,3.37,4.75,3.41,7.82c0.03,2.94-1.05,5.49-3.22,7.64c-2.2,2.17-4.99,3.27-8.37,3.32c-2.74,0.03-5.15-0.71-7.24-2.21
	C171.53,111.93,170.09,109.95,169.32,107.52"/>
<path class="st1" d="M52.06,139.05l-6.95,3.41l-0.28-0.54c1.26-0.84,2.16-1.67,2.74-2.52c0.56-0.84,0.86-1.81,0.91-2.9
	c0.05-1.08-0.15-2.07-0.59-2.97c-0.51-1.03-1.24-1.72-2.2-2.09c-0.95-0.37-1.84-0.35-2.63,0.04c-0.63,0.3-1.07,0.79-1.38,1.46
	c-0.43,0.97-0.71,2.91-0.81,5.83c-0.09,2.37-0.24,4.02-0.44,4.99c-0.2,0.95-0.57,1.79-1.13,2.53c-0.54,0.71-1.22,1.28-2.02,1.68
	c-1.53,0.75-3.13,0.78-4.8,0.14c-1.68-0.64-2.99-1.88-3.89-3.75c-0.28-0.57-0.52-1.15-0.67-1.7c-0.11-0.34-0.25-1.05-0.4-2.18
	c-0.17-1.12-0.3-1.8-0.44-2.05c-0.12-0.24-0.29-0.41-0.5-0.49c-0.23-0.06-0.59-0.02-1.08,0.14l-0.28-0.56l6.91-3.38l0.27,0.56
	c-1.32,0.96-2.24,1.83-2.73,2.62c-0.51,0.79-0.78,1.74-0.81,2.88c-0.04,1.13,0.2,2.22,0.73,3.29c0.6,1.24,1.41,2.06,2.41,2.44
	c1,0.39,1.96,0.38,2.84-0.04c0.5-0.26,0.92-0.64,1.29-1.15c0.37-0.53,0.63-1.18,0.79-1.95c0.11-0.54,0.21-1.9,0.34-4.1
	c0.12-2.2,0.28-3.79,0.51-4.8c0.21-1,0.58-1.88,1.08-2.59c0.51-0.72,1.17-1.27,2.01-1.67c1.45-0.71,2.95-0.77,4.55-0.16
	c1.57,0.59,2.79,1.74,3.62,3.46c0.53,1.06,0.82,2.32,0.89,3.78c0.02,0.67,0.09,1.13,0.19,1.35c0.13,0.25,0.31,0.43,0.55,0.53
	c0.23,0.07,0.6,0.05,1.12-0.06L52.06,139.05z"/>
<path class="st1" d="M50.08,154.58l7.37,7.34l4.54-4.54c0.79-0.82,1.28-1.4,1.43-1.75c0.12-0.27,0.13-0.6,0.01-0.99
	c-0.14-0.53-0.4-0.98-0.77-1.34l-0.57-0.57l0.43-0.44l6.79,6.77l-0.43,0.44l-0.57-0.57c-0.36-0.37-0.81-0.63-1.33-0.78
	c-0.38-0.13-0.73-0.11-1.08,0.06c-0.34,0.16-0.89,0.64-1.67,1.41l-10.21,10.23c-0.79,0.81-1.27,1.38-1.43,1.74
	c-0.1,0.28-0.1,0.61-0.02,0.99c0.17,0.53,0.43,0.98,0.8,1.36l0.56,0.55l-0.42,0.44l-6.79-6.76l0.43-0.44l0.55,0.57
	c0.65,0.64,1.32,0.92,2,0.82c0.43-0.05,1.12-0.55,2.08-1.5l4.81-4.84l-7.37-7.35l-4.81,4.85c-0.81,0.79-1.29,1.38-1.44,1.74
	c-0.12,0.27-0.12,0.6-0.01,0.99c0.14,0.52,0.41,0.96,0.78,1.34l0.57,0.57l-0.43,0.44l-6.79-6.78l0.43-0.42l0.57,0.56
	c0.65,0.65,1.31,0.93,1.99,0.85c0.44-0.07,1.13-0.58,2.07-1.53l10.2-10.23c0.81-0.8,1.29-1.39,1.44-1.75
	c0.11-0.27,0.12-0.59,0.03-0.98c-0.16-0.54-0.42-0.98-0.8-1.35l-0.55-0.57l0.42-0.42l6.8,6.76l-0.44,0.44l-0.57-0.56
	c-0.38-0.38-0.82-0.64-1.33-0.8c-0.36-0.13-0.72-0.1-1.06,0.07c-0.34,0.15-0.92,0.63-1.68,1.4L50.08,154.58z"/>
<path class="st1" d="M80.54,165.02c-1.84-0.81-3.61-0.79-5.3,0.04c-2.13,1.03-3.93,3.25-5.41,6.63c-1.44,3.33-1.84,6.19-1.18,8.6
	c0.51,1.87,1.68,3.2,3.51,4c1.9,0.83,3.73,0.8,5.49-0.09c2.07-1.04,3.8-3.16,5.19-6.35c1.07-2.46,1.59-4.67,1.58-6.68
	c-0.02-1.53-0.37-2.81-1.06-3.84C82.67,166.3,81.72,165.55,80.54,165.02 M74.35,186.19c0.26,2.21,0.8,4.01,1.65,5.36
	c0.82,1.36,1.98,2.43,3.45,3.22l-0.22,0.49c-1.37-0.65-2.74-1.6-4.1-2.78c-1.37-1.21-2.57-2.56-3.59-4.09
	c-1.03-1.51-1.83-3.01-2.42-4.48c-1.19-1.21-2.08-2.33-2.63-3.36c-0.81-1.52-1.25-3.13-1.31-4.86c-0.05-1.73,0.33-3.57,1.19-5.52
	c1.32-3.06,3.43-5.17,6.3-6.35c2.88-1.15,5.72-1.12,8.55,0.1c2.68,1.17,4.57,3.19,5.65,6.09c1.06,2.89,0.94,5.88-0.4,8.97
	c-1.1,2.52-2.75,4.43-4.98,5.71C79.27,185.99,76.89,186.49,74.35,186.19"/>
<path class="st1" d="M99.29,191.3l-0.09,0.6l-9.51-1.34l0.1-0.6l0.79,0.11c0.91,0.12,1.61-0.04,2.11-0.53
	c0.31-0.31,0.56-1.14,0.75-2.47l2.02-14.32c0.17-1.13,0.19-1.88,0.11-2.26c-0.08-0.29-0.26-0.55-0.58-0.78
	c-0.43-0.33-0.92-0.54-1.44-0.62l-0.78-0.1l0.09-0.62l9.49,1.36l-0.07,0.6l-0.81-0.12c-0.9-0.11-1.6,0.05-2.09,0.53
	c-0.33,0.31-0.57,1.13-0.77,2.46l-2.02,14.32c-0.17,1.13-0.2,1.87-0.11,2.24c0.07,0.3,0.26,0.57,0.59,0.81
	c0.43,0.33,0.92,0.54,1.43,0.6L99.29,191.3z"/>
<path class="st1" d="M110.54,180.59c0.58,0.06,1.12,0.09,1.58,0.1c0.45,0.02,0.83,0.01,1.15-0.02c1.15-0.08,2.08-0.62,2.84-1.57
	c0.75-0.95,1.07-2.14,0.94-3.54c-0.07-0.96-0.36-1.85-0.81-2.64c-0.47-0.79-1.08-1.38-1.85-1.73c-0.76-0.35-1.59-0.47-2.53-0.39
	c-0.55,0.03-1.26,0.21-2.13,0.49L110.54,180.59z M110.62,181.52l0.56,6.5c0.13,1.4,0.35,2.27,0.69,2.58
	c0.46,0.45,1.11,0.63,1.97,0.57l0.85-0.07l0.05,0.6l-9.57,0.84l-0.05-0.62l0.84-0.06c0.94-0.08,1.6-0.45,1.95-1.1
	c0.19-0.36,0.23-1.18,0.11-2.45l-1.25-14.42c-0.13-1.41-0.34-2.28-0.67-2.59c-0.47-0.45-1.13-0.63-1.98-0.55l-0.83,0.08l-0.05-0.62
	l8.18-0.71c1.99-0.16,3.58-0.09,4.77,0.22c1.18,0.31,2.23,0.91,3.09,1.82c0.89,0.91,1.37,2.03,1.49,3.37
	c0.15,1.82-0.3,3.35-1.41,4.6c-1.11,1.24-2.75,1.95-4.95,2.16c-0.54,0.03-1.12,0.04-1.76,0.03
	C112.03,181.68,111.35,181.62,110.62,181.52"/>
<path class="st1" d="M139.22,161.36l2.28,4.74l-0.59,0.24c-0.45-0.79-0.87-1.35-1.21-1.63c-0.57-0.46-1.17-0.71-1.81-0.77
	c-0.64-0.07-1.38,0.09-2.24,0.45l-2.89,1.21l6.63,15.77c0.52,1.28,1,2.02,1.41,2.21c0.56,0.26,1.24,0.23,2.05-0.11l0.72-0.3
	l0.23,0.57l-8.75,3.68l-0.22-0.56l0.73-0.3c0.86-0.37,1.38-0.9,1.51-1.59c0.09-0.42-0.1-1.19-0.6-2.36l-6.63-15.77l-2.48,1.04
	c-0.96,0.41-1.61,0.77-1.96,1.08c-0.45,0.42-0.74,0.98-0.9,1.68c-0.13,0.71-0.06,1.55,0.27,2.51l-0.57,0.24l-1.8-4.95L139.22,161.36
	z"/>
<path class="st1" d="M158.13,163.83l-8.67-4.58l2.73,9.48L158.13,163.83z M159.28,164.5l-6.7,5.51l1.07,3.69
	c0.26,0.92,0.53,1.54,0.81,1.87c0.21,0.26,0.53,0.4,0.94,0.38c0.42-0.01,1.07-0.32,1.94-0.94l0.39,0.46l-5.43,4.49l-0.39-0.47
	c0.62-0.72,0.94-1.29,0.99-1.65c0.11-0.77-0.1-2-0.59-3.68l-5.63-19.24l0.44-0.37l17.86,9.44c1.43,0.76,2.5,1.15,3.17,1.17
	c0.68,0.02,1.39-0.25,2.13-0.78l0.38,0.48l-6.82,5.62l-0.39-0.48c0.66-0.59,1.03-1.1,1.12-1.5c0.08-0.4,0-0.73-0.22-1.01
	c-0.33-0.38-0.98-0.83-1.98-1.35L159.28,164.5z"/>
<path class="st1" d="M169.38,146.72c0.11-0.17,0.21-0.33,0.27-0.46c0.09-0.14,0.16-0.25,0.21-0.33c1.07-1.84,1.47-3.48,1.2-4.88
	c-0.26-1.4-1.01-2.46-2.24-3.16c-1.22-0.7-2.41-0.89-3.62-0.57c-1.2,0.32-2.15,1.11-2.87,2.36c-0.32,0.56-0.66,1.35-1.02,2.41
	L169.38,146.72z M187.28,138.69l-2.98,5.18l-12.85,1.36c-0.26,0.49-0.47,0.89-0.66,1.2c-0.08,0.13-0.14,0.25-0.23,0.4
	c-0.09,0.15-0.19,0.28-0.27,0.43l5.63,3.25c1.22,0.7,2.06,1,2.5,0.9c0.64-0.13,1.16-0.55,1.57-1.26l0.45-0.76l0.52,0.31l-4.77,8.31
	l-0.54-0.3l0.42-0.73c0.48-0.83,0.55-1.56,0.2-2.23c-0.18-0.37-0.81-0.87-1.92-1.5L161.82,146c-1.23-0.7-2.05-1-2.51-0.9
	c-0.63,0.13-1.17,0.56-1.59,1.29l-0.4,0.73l-0.55-0.3l4.08-7.07c1.18-2.06,2.2-3.49,3.08-4.3c0.85-0.79,1.88-1.31,3.09-1.52
	c1.2-0.23,2.35-0.01,3.47,0.63c1.2,0.69,2,1.66,2.43,2.96c0.43,1.28,0.35,2.83-0.22,4.67l7.86-0.8c1.81-0.18,3.11-0.47,3.91-0.9
	c0.8-0.42,1.57-1.12,2.29-2.11L187.28,138.69z"/>
<polygon class="st1" points="151.59,90.05 121.94,90.05 121.94,60.41 91.06,60.41 91.06,90.05 61.41,90.05 61.41,120.95 
	91.06,120.95 91.06,150.58 121.94,150.58 121.94,120.95 151.59,120.95 "/>
<path class="st1" d="M106.5,47.26c-32.12,0-58.24,26.12-58.24,58.24c0,32.11,26.12,58.24,58.24,58.24
	c32.11,0,58.23-26.13,58.23-58.24C164.73,73.38,138.62,47.26,106.5,47.26 M162.87,105.5c0,31.07-25.29,56.36-56.36,56.36
	c-31.09,0-56.38-25.29-56.38-56.36c0-31.07,25.29-56.36,56.38-56.36C137.58,49.14,162.87,74.43,162.87,105.5"/>
<path class="st2" d="M106.5,47.32c-32.09,0-58.18,26.09-58.18,58.18c0,32.08,26.09,58.18,58.18,58.18
	c32.08,0,58.17-26.11,58.17-58.18C164.67,73.41,138.58,47.32,106.5,47.32z M162.81,105.5c0,31.04-25.26,56.3-56.3,56.3
	c-31.05,0-56.32-25.26-56.32-56.3c0-31.04,25.26-56.3,56.32-56.3C137.55,49.2,162.81,74.46,162.81,105.5z"/>
</svg>
